<svg xmlns="http://www.w3.org/2000/svg" x="0px" y="0px" width="100" height="100" viewBox="0,0,256,256">
<g fill="#0566fc" fill-rule="nonzero" stroke="none" stroke-width="1" stroke-linecap="butt" stroke-linejoin="miter" stroke-miterlimit="10" stroke-dasharray="" stroke-dashoffset="0" font-family="none" font-weight="none" font-size="none" text-anchor="none" style="mix-blend-mode: normal"><g transform="scale(5.12,5.12)"><path d="M27.8125,1c-0.20312,0.03516 -0.38672,0.13672 -0.53125,0.28125c-0.86328,0.86328 -2.79297,1.42969 -4.84375,1.625c-2.05078,0.19531 -4.14844,0.09375 -5.4375,0.09375c-0.35937,-0.00391 -0.69531,0.18359 -0.87891,0.49609c-0.17969,0.3125 -0.17969,0.69531 0,1.00781c0.18359,0.3125 0.51953,0.5 0.87891,0.49609c1.19141,0 3.39063,0.08594 5.625,-0.125c1.82422,-0.17187 3.60938,-0.65625 5.0625,-1.59375c2.22656,4.09375 7.74609,6.49219 15.03125,5.78125c-0.53906,1.93359 -0.89844,3.96094 -0.59375,6.0625c0.34375,2.38281 1.55469,4.76563 3.6875,6.96875c-3.50781,5.75 -0.71875,12.28125 -0.71875,12.28125c0.07813,0.39844 0.38672,0.70703 0.78516,0.78516c0.39844,0.08203 0.80078,-0.08594 1.02734,-0.42187c0.22656,-0.33984 0.22656,-0.77734 0,-1.11328c0,0 -2.53906,-6.17578 0.90625,-11.0625c0.27344,-0.40234 0.22266,-0.94141 -0.125,-1.28125c-2.25391,-2.08984 -3.27734,-4.26172 -3.59375,-6.4375c-0.31641,-2.17578 0.09766,-4.38672 0.84375,-6.5c0.12891,-0.33203 0.06641,-0.71094 -0.16016,-0.98828c-0.22266,-0.27734 -0.58203,-0.41406 -0.93359,-0.35547c-8.01953,1.22656 -13.4375,-1.59375 -14.90625,-5.375c-0.16406,-0.41406 -0.58594,-0.67187 -1.03125,-0.625c-0.03125,0 -0.0625,0 -0.09375,0zM23.9375,7.9375c-0.96094,0 -1.87109,0.28125 -2.625,0.875l-2.59375,2.03125c0.08203,0.01563 0.20313,0.01563 0.28125,0.03125h0.03125l0.03125,0.03125c0.23047,0.04297 0.44141,0.08203 0.625,0.125c0.24219,0.05469 0.47266,0.09766 0.65625,0.15625c0.26953,0.08203 0.49609,0.17969 0.6875,0.28125c0.14063,0.07422 0.28125,0.15625 0.40625,0.25l5.125,3.84375h0.03125c1.85547,-1.44922 2.17188,-4.14453 0.71875,-6c-0.8125,-1.04297 -2.04687,-1.625 -3.375,-1.625zM30.1875,11.6875c0.15234,1.89063 -0.54687,3.80859 -2.03125,5.15625l0.03125,0.03125l0.0625,0.03125l0.03125,0.03125c0.30469,0.25391 0.58594,0.45703 0.84375,0.65625c0.72266,0.55469 1.99609,1.52734 2.15625,2.9375l1.3125,-1.03125c1.91016,-1.49219 2.24219,-4.24609 0.75,-6.15625c-0.77344,-0.98828 -1.91406,-1.57031 -3.15625,-1.65625zM14.09375,12.46875c-0.57422,0 -1.125,0.01563 -1.65625,0.0625c-0.17578,0.01563 -0.36328,0.04297 -0.53125,0.0625c-0.08984,0.01172 -0.16016,0.01953 -0.25,0.03125c-0.12109,0.01563 -0.23047,0.04297 -0.34375,0.0625c-0.08203,0.01563 -0.17187,0.01563 -0.25,0.03125c-0.14062,0.02734 -0.27734,0.08984 -0.40625,0.125c-0.03906,0.01172 -0.08594,0.01953 -0.125,0.03125c-0.16016,0.04688 -0.29687,0.09766 -0.4375,0.15625c-0.04687,0.01953 -0.08203,0.04297 -0.125,0.0625c-0.09766,0.04688 -0.19531,0.07422 -0.28125,0.125c-0.03516,0.02344 -0.0625,0.07031 -0.09375,0.09375c-0.10547,0.07813 -0.20703,0.12891 -0.28125,0.21875c-0.28906,0.34766 -0.55859,0.74219 -0.8125,1.125c-0.07812,0.12109 -0.17187,0.21875 -0.25,0.34375c-0.19922,0.32031 -0.38281,0.66016 -0.5625,1c-0.15234,0.28906 -0.29297,0.57422 -0.4375,0.875c-0.38281,0.77734 -0.75781,1.57422 -1.125,2.40625c-0.28906,0.65625 -0.58594,1.34375 -0.90625,2.03125c-0.69922,1.50391 -1.00391,3.81641 -1.34375,6.25c-0.46875,3.36328 -1.02344,7.14844 -2.59375,8.71875c-0.19922,0.19531 -0.29297,0.46875 -0.28125,0.75c0.01172,0.27734 0.12891,0.57031 0.34375,0.75l13,11c0.1875,0.15234 0.42578,0.21875 0.65625,0.21875c0.21484,0 0.44531,-0.07812 0.625,-0.21875c2.26172,-1.75 3.69922,-2.12891 5.53125,-2.625c2.4375,-0.66406 5.19141,-1.40625 10.4375,-5.34375c2.68359,-2.01172 4.48828,-4.11328 5.6875,-5.875l-3.4375,2.6875c-1.11328,0.875 -2.42969,1.34375 -3.84375,1.34375c-1.9375,0 -3.75391,-0.87109 -4.96875,-2.40625c-1.07031,-1.37891 -1.46094,-3.07812 -1.25,-4.6875l-0.65625,-0.5625c-0.35547,-0.30469 -0.63281,-0.59766 -0.875,-0.90625c-1.48437,-1.90234 -1.68359,-4.375 -0.75,-6.4375c-0.50781,-0.4375 -1.00391,-0.99219 -1.46875,-1.65625l-0.5,-0.09375c0.82422,2.29688 2.33984,8.19922 -1.84375,13.03125c-0.19922,0.23047 -0.5,0.34375 -0.78125,0.34375c-0.23047,0 -0.46875,-0.08594 -0.65625,-0.25c-0.41797,-0.35937 -0.45312,-0.98828 -0.09375,-1.40625c4.35547,-5.03125 1.21875,-11.77734 1.1875,-11.84375c-0.06641,-0.13672 -0.09375,-0.26172 -0.09375,-0.40625l-0.40625,-0.125l-1.75,2.875c-0.1875,0.30859 -0.50781,0.46875 -0.84375,0.46875c-0.17969,0 -0.36719,-0.05469 -0.53125,-0.15625c-0.47266,-0.28906 -0.60156,-0.90234 -0.3125,-1.375l2.125,-3.46875c0.22656,-0.36719 0.64063,-0.53516 1.0625,-0.4375l4.1875,0.96875c0.20313,0.04688 0.41797,0.13672 0.53125,0.3125c0.15234,0.23438 0.32813,0.45313 0.5,0.65625v0.03125c3.50781,4.00391 6.51563,1.30469 7.25,0.0625c0.73438,-1.23828 -0.4375,-1.66797 -2.0625,-3.03125l-6.34375,-4.8125c-0.05078,-0.03906 -0.4375,-0.34375 -0.4375,-0.34375c-0.04297,-0.03125 -0.07812,-0.03906 -0.125,-0.0625c-0.08594,-0.04687 -0.19922,-0.10937 -0.34375,-0.15625c-0.13672,-0.04297 -0.31641,-0.08594 -0.5,-0.125c-0.16406,-0.03906 -0.36328,-0.05859 -0.5625,-0.09375c-0.01562,-0.00391 -0.01562,-0.02734 -0.03125,-0.03125c-1.19922,-0.21484 -2.91406,-0.375 -4.5625,-0.375zM35.84375,18.3125c-0.39844,1.0625 -1.07422,2.03125 -2.03125,2.78125l-3.90625,3.03125c0,0 -0.41797,0.41406 -1.53125,0.6875c-0.77344,0.42969 -1.69141,0.75 -2.75,0.75c-0.77734,0 -1.54297,-0.18359 -2.28125,-0.5c-0.03906,-0.01562 -0.09375,-0.01562 -0.125,-0.03125c-0.01172,0.03125 -0.01953,0.0625 -0.03125,0.09375c-0.03125,0.08984 -0.07031,0.16016 -0.09375,0.25c-0.04687,0.16406 -0.06641,0.35938 -0.09375,0.53125c-0.01172,0.0625 -0.02344,0.125 -0.03125,0.1875c-0.02344,0.22656 -0.04297,0.45703 -0.03125,0.6875c0.00391,0.06641 0.02344,0.12109 0.03125,0.1875c0.01953,0.21094 0.04297,0.41797 0.09375,0.625c0.00781,0.03125 0.02344,0.05859 0.03125,0.09375c0.0625,0.23438 0.14453,0.46484 0.25,0.6875c0.02344,0.05469 0.03516,0.10156 0.0625,0.15625c0.11719,0.22656 0.24609,0.44922 0.40625,0.65625c0,0 0.03125,-0.00391 0.03125,0c0.17578,0.22266 0.35156,0.41016 0.5625,0.59375c0.00391,0 0.02734,0.02734 0.03125,0.03125l0.125,0.125c0.73828,0.57422 1.66016,0.90625 2.625,0.90625c0.96484,0 1.87109,-0.34375 2.625,-0.9375l6.15625,-4.78125c1.85547,-1.44922 2.19922,-4.14062 0.75,-6c-0.25,-0.31641 -0.55859,-0.58203 -0.875,-0.8125zM38.90625,24.65625c-0.40234,0.77344 -0.95703,1.45703 -1.6875,2.03125l-6.15625,4.8125c-1.11328,0.875 -2.45703,1.34375 -3.875,1.34375c-0.5,0 -0.96484,-0.07422 -1.4375,-0.1875c-0.00781,0.93359 0.26172,1.86328 0.875,2.65625c0.82031,1.03906 2.05078,1.65625 3.375,1.65625c0.96484,0 1.86719,-0.3125 2.625,-0.90625l6.15625,-4.8125c1.85547,-1.45312 2.16797,-4.15234 0.71875,-6c-0.17969,-0.23047 -0.37891,-0.41016 -0.59375,-0.59375z"></path></g></g>
</svg>