<svg xmlns="http://www.w3.org/2000/svg" x="0px" y="0px" width="100" height="100" viewBox="0,0,256,256">
<g fill="currentColor" fill-rule="nonzero" stroke="none" stroke-width="1" stroke-linecap="butt" stroke-linejoin="miter" stroke-miterlimit="10" stroke-dasharray="" stroke-dashoffset="0" font-family="none" font-weight="none" font-size="none" text-anchor="none" style="mix-blend-mode: normal"><g transform="scale(5.12,5.12)"><path d="M27,2c-2.76172,0 -5,2.23828 -5,5c0,2.76172 2.23828,5 5,5c2.76172,0 5,-2.23828 5,-5c0,-2.76172 -2.23828,-5 -5,-5zM17,12c-0.75781,0 -1.49219,0.29297 -2.04687,0.81641c-0.07031,0.04688 -0.13281,0.09766 -0.19141,0.16016l-6.37891,6.87891c-0.05078,0.05469 -0.09375,0.11719 -0.13281,0.18359c-0.80859,0.98828 -1.25,2.20703 -1.25,3.46094c0,3.03125 2.46875,5.5 5.5,5.5c0.53516,0 1.05859,-0.07812 1.55859,-0.22656c-0.03516,-0.25391 -0.05859,-0.51172 -0.05859,-0.77344c0,-0.66406 0.11328,-1.32422 0.33984,-1.96875l2.74609,-10.84766c0.22266,-1.07031 0.875,-1.97266 1.74219,-2.54297c-0.50781,-0.39453 -1.13672,-0.64062 -1.82812,-0.64062zM36.98438,12.28516c-0.55078,0.00781 -0.99219,0.46094 -0.98437,1.01172v5.46875l-4,1.90625l-5.59375,-5.09375c-0.26562,-0.26562 -0.60547,-0.44922 -0.97266,-0.53125l-0.00781,-0.00391l-3.89844,-0.97266l-0.00391,0.00391c-0.17187,-0.05078 -0.34766,-0.07422 -0.52344,-0.07422c-0.96094,0 -1.78516,0.68359 -1.96484,1.62891l-2.75781,10.89063l0.00391,0.01563c-0.18359,0.46875 -0.28125,0.96484 -0.28125,1.46484c0,1.28516 0.62109,2.48828 1.66016,3.23828l7.33984,6.26172v8c0,1.37891 1.12109,2.5 2.5,2.5c1.37891,0 2.5,-1.12109 2.5,-2.5v-10.5c0,-0.53906 -0.21875,-1.05078 -0.60156,-1.42578l-0.00391,-0.00781l-5.39453,-5.56641l2,-7.16016l4.60938,3.59375c0.37109,0.36328 0.87109,0.56641 1.39063,0.56641c0.32813,0 0.64844,-0.08203 0.9375,-0.23437h0.00391l3.05859,-1.55469v23.78906c-0.00391,0.35938 0.18359,0.69531 0.49609,0.87891c0.3125,0.17969 0.69531,0.17969 1.00781,0c0.3125,-0.18359 0.5,-0.51953 0.49609,-0.87891v-24.80469l0.51953,-0.26562c0.875,-0.23437 1.48047,-1.02734 1.48047,-1.92969c0,-1.10547 -0.89453,-2 -2,-2v-4.70312c0.00391,-0.26953 -0.10156,-0.52734 -0.29297,-0.71875c-0.19141,-0.19141 -0.45312,-0.29687 -0.72266,-0.29297zM15.57031,32.03125l-1.85156,5.94531l-4.16406,5.94922l0.00781,0.00781c-0.34766,0.42969 -0.5625,0.96875 -0.5625,1.56641c0,1.38281 1.11719,2.5 2.5,2.5c0.91016,0 1.69922,-0.49219 2.13672,-1.21875h0.00391l4.51563,-6.80078l1.59766,-4.35156z"></path></g></g>
</svg>