<svg xmlns="http://www.w3.org/2000/svg" x="0px" y="0px" width="100" height="100" viewBox="0,0,256,256"
style="fill:#0566fc;">
<g fill="#0566fc" fill-rule="nonzero" stroke="none" stroke-width="1" stroke-linecap="butt" stroke-linejoin="miter" stroke-miterlimit="10" stroke-dasharray="" stroke-dashoffset="0" font-family="none" font-weight="none" font-size="none" text-anchor="none" style="mix-blend-mode: normal"><g transform="scale(5.12,5.12)"><path d="M25,46.10156c-8.82031,0 -16,-7.17969 -16,-16c0,-1.78125 0.27734,-3.48828 0.82813,-5.09766c-2.84766,0.38281 -5.59375,-0.45703 -7.43359,-2.29687c-1.81641,-1.8125 -2.63672,-4.37891 -2.3125,-7.21875c0.3125,-2.75391 1.66406,-5.44922 3.8125,-7.59375c2.47656,-2.48047 5.67578,-3.89844 8.77344,-3.89844c2.33594,0 4.38672,0.78906 5.92969,2.28516c2.07813,2.08203 2.85938,5.125 2.20703,8.26563c2.74219,-0.72266 5.80469,-0.71094 8.32031,0.01953c-0.57031,-3.14844 0.20703,-6.21094 2.16797,-8.17187c1.53516,-1.53516 3.67969,-2.37891 6.03906,-2.37891c3.11328,0 6.30859,1.41406 8.77344,3.87891c4.51953,4.51953 5.18359,11.01953 1.51172,14.80078c-1.55078,1.55469 -3.69922,2.40234 -6.0625,2.40234c-0.45703,0 -0.92187,-0.03125 -1.38672,-0.09375c0.55469,1.60938 0.83203,3.31641 0.83203,5.09766c0,8.82031 -7.17969,16 -16,16z"></path></g></g>
</svg>