<svg xmlns="http://www.w3.org/2000/svg" x="0px" y="0px" width="100" height="100" viewBox="0,0,256,256"
style="fill:#0566fc;">
<g fill="#0566fc" fill-rule="nonzero" stroke="none" stroke-width="1" stroke-linecap="butt" stroke-linejoin="miter" stroke-miterlimit="10" stroke-dasharray="" stroke-dashoffset="0" font-family="none" font-weight="none" font-size="none" text-anchor="none" style="mix-blend-mode: normal"><g transform="scale(5.12,5.12)"><path d="M44.88672,9.45313c-0.14844,-0.30469 -3.89453,-7.44531 -19.84766,-7.44531c-15.94531,0 -19.76953,7.13281 -19.92187,7.4375l-0.10937,0.21094v0.23828c0,34.58594 18.98047,38.91016 19.79297,39.07813l0.20703,0.04297l0.20703,-0.04687c0.80859,-0.17969 19.77734,-4.74609 19.77734,-39.07422v-0.23047zM12,20c0,0 3.125,-4 6,-4c2.37891,0 5,3 5,3c0,0 -2.83594,0.54688 -5.61719,0.84375c-2.78516,0.30078 -5.38281,0.15625 -5.38281,0.15625zM25,38c-6.91406,0 -10,-11 -10,-11c0,0 6.29688,2 10,2c3.70313,0 10,-2 10,-2c0,0 -3.08594,11 -10,11zM32.61719,19.84375c-2.78125,-0.29687 -5.61719,-0.84375 -5.61719,-0.84375c0,0 2.62109,-3 5,-3c2.875,0 6,4 6,4c0,0 -2.59766,0.14453 -5.38281,-0.15625z"></path></g></g>
</svg>