<svg xmlns="http://www.w3.org/2000/svg" x="0px" y="0px" width="100" height="100" viewBox="0,0,256,256"
style="fill:#0566fc;">
<g fill="currentColor" fill-rule="nonzero" stroke="none" stroke-width="1" stroke-linecap="butt" stroke-linejoin="miter" stroke-miterlimit="10" stroke-dasharray="" stroke-dashoffset="0" font-family="none" font-weight="none" font-size="none" text-anchor="none" style="mix-blend-mode: normal"><g transform="scale(5.12,5.12)"><path d="M11,8c-0.25391,0 -0.52344,0.08594 -0.71875,0.28125l-1.6875,1.71875h-1.59375c-1.79297,0 -3.19141,2.27734 -4.1875,6.78125c-0.10937,0.5 -0.59766,0.72266 -1.46875,0.96875c-0.5,0.14453 -1.34375,0.39844 -1.34375,1.28125c0,1.53516 1.89063,2.96875 3.34375,2.96875c0.63672,0 1.07031,0.14453 1.3125,0.40625c0.47266,0.51172 0.38672,1.66406 0.3125,2.59375v0.21875c-0.05859,0.75391 -0.51172,1.69922 -1.0625,2.90625c-0.74609,1.63281 -1.75781,3.87891 -2.46875,7.03125c-0.83203,3.69141 -0.34375,7.09375 1.28125,9.125c0.87891,1.09766 2.03516,1.71875 3.28125,1.71875h8c1.57031,0 3.66797,-2.17187 4.21875,-4.375c0.28516,-1.13672 0.8125,-3.36719 1.4375,-10.625h5.03125c4.19922,0 6.3125,-4.05078 6.3125,-6.3125v-2.6875h13c0.42969,0 0.80078,-0.28125 0.9375,-0.6875l0.90625,-2.65625l2.71875,-1.8125c0.27734,-0.1875 0.4375,-0.50781 0.4375,-0.84375v-5c0,-0.55078 -0.44531,-1 -1,-1h-2.59375l-0.6875,-0.71875c-0.1875,-0.1875 -0.45312,-0.28125 -0.71875,-0.28125h-1c-0.26562,0 -0.53125,0.09375 -0.71875,0.28125l-0.6875,0.71875h-28.1875l-1.6875,-1.71875c-0.19531,-0.19531 -0.46484,-0.28125 -0.71875,-0.28125zM25,22h4v2.6875c0,1.1875 -1.32812,4.3125 -4.3125,4.3125h-4.84375c0.07813,-1.01172 0.13672,-2.03125 0.21875,-3.21875c0.03906,-0.58594 1.125,-3.78125 4.9375,-3.78125zM23.59375,23.21875c-2.07031,0.64844 -2.52734,2.61328 -2.53125,2.625c-0.03125,0.46875 -0.0625,0.90234 -0.09375,1.34375c0.75781,0.30078 1.57031,0.4375 2.4375,0.4375c1.28125,0 2.3125,-0.96875 2.3125,-2.21875c0,-1.03125 -0.86719,-1.46484 -1.375,-1.71875c-0.29297,-0.14453 -0.53906,-0.26172 -0.75,-0.46875z"></path></g></g>
</svg>