<svg xmlns="http://www.w3.org/2000/svg" x="0px" y="0px" width="100" height="100" viewBox="0,0,256,256"
style="fill:#0566fc;">
<g fill="#0566fc" fill-rule="nonzero" stroke="none" stroke-width="1" stroke-linecap="butt" stroke-linejoin="miter" stroke-miterlimit="10" stroke-dasharray="" stroke-dashoffset="0" font-family="none" font-weight="none" font-size="none" text-anchor="none" style="mix-blend-mode: normal"><g transform="scale(5.12,5.12)"><path d="M11,4c-4.96094,0 -9,4.03906 -9,9c0,2.83203 1.32422,5.34766 3.375,7h-1.375c-1.65234,0 -3,1.34766 -3,3v21c0,1.65234 1.34766,3 3,3h32c1.65234,0 3,-1.34766 3,-3v-21c0,-1.65234 -1.34766,-3 -3,-3h-2.375c2.05078,-1.65234 3.375,-4.16797 3.375,-7c0,-4.96094 -4.03516,-9 -9,-9c-3.9375,0 -7.28125,2.53516 -8.5,6.0625c-1.21875,-3.52734 -4.5625,-6.0625 -8.5,-6.0625zM19.5,15.9375c0.55859,1.61719 1.56641,3.00781 2.875,4.0625h-5.75c1.30859,-1.05469 2.31641,-2.44531 2.875,-4.0625zM46.1875,24c-1.30469,0 -2.33594,1.19141 -3.34375,2.34375c-0.54297,0.62109 -1.44922,1.65625 -1.84375,1.65625h-0.0625v12h0.0625c0.41797,0 1.19922,0.98047 1.71875,1.625c0.93359,1.16797 1.89844,2.375 3.28125,2.375h3v-20z"></path></g></g>
</svg>