<svg xmlns="http://www.w3.org/2000/svg" x="0px" y="0px" width="100" height="100" viewBox="0,0,256,256"
style="fill:#0566fc;">
<g fill="currentColor" fill-rule="nonzero" stroke="none" stroke-width="1" stroke-linecap="butt" stroke-linejoin="miter" stroke-miterlimit="10" stroke-dasharray="" stroke-dashoffset="0" font-family="none" font-weight="none" font-size="none" text-anchor="none" style="mix-blend-mode: normal"><g transform="scale(5.12,5.12)"><path d="M44.89844,9.45703c-0.15234,-0.30469 -3.86328,-7.45703 -19.89844,-7.45703c-15.92969,0 -19.73828,7.14453 -19.89062,7.44922l-0.10937,0.21094v0.23828c0,34.62109 18.99219,38.91406 19.80078,39.08203l0.20703,0.04297l0.20703,-0.04687c0.80859,-0.17969 19.78516,-4.76953 19.78516,-39.07812v-0.23047zM13,22.30078c0,0 1.69922,-1.5 4.10156,-2.60156c2.09766,-1 5,-1.69922 5,-1.69922c0,0 -0.30078,4.39844 -3.10156,5.80078c-2,1.09766 -6,-1.5 -6,-1.5zM33.65625,35.75781c-0.19141,0.16406 -0.42578,0.24219 -0.65625,0.24219c-0.27734,0 -0.55859,-0.11719 -0.75781,-0.34375c-0.08984,-0.10547 -2.41016,-2.65625 -7.24219,-2.65625c-4.83203,0 -7.15234,2.55078 -7.24609,2.66016c-0.36719,0.41016 -0.99609,0.44922 -1.41016,0.08984c-0.41406,-0.36328 -0.45703,-0.98828 -0.10156,-1.40625c0.12109,-0.13672 2.96875,-3.34375 8.75781,-3.34375c5.78906,0 8.63672,3.21094 8.75781,3.34375c0.35938,0.41797 0.3125,1.05078 -0.10156,1.41406zM31,23.80078c-2.80078,-1.40234 -3.10156,-5.80078 -3.10156,-5.80078c0,0 2.90234,0.80078 5,1.69922c2.40234,1.10156 4.10156,2.60156 4.10156,2.60156c0,0 -4,2.59766 -6,1.5z"></path></g></g>
</svg>