<svg xmlns="http://www.w3.org/2000/svg" x="0px" y="0px" width="100" height="100" viewBox="0,0,256,256">
<g fill="#0566fc" fill-rule="nonzero" stroke="none" stroke-width="1" stroke-linecap="butt" stroke-linejoin="miter" stroke-miterlimit="10" stroke-dasharray="" stroke-dashoffset="0" font-family="none" font-weight="none" font-size="none" text-anchor="none" style="mix-blend-mode: normal"><g transform="scale(5.12,5.12)"><path d="M38.5,3c-2.48528,0 -4.5,2.01472 -4.5,4.5c0,2.48528 2.01472,4.5 4.5,4.5c2.48528,0 4.5,-2.01472 4.5,-4.5c0,-2.48528 -2.01472,-4.5 -4.5,-4.5zM10.5,4c-2.48528,0 -4.5,2.01472 -4.5,4.5c0,2.48528 2.01472,4.5 4.5,4.5c2.48528,0 4.5,-2.01472 4.5,-4.5c0,-2.48528 -2.01472,-4.5 -4.5,-4.5zM24.55273,4.4082c-0.63638,-0.00125 -1.2705,0.2397 -1.75,0.7207l-9.44336,8.83203l-9.17578,0.70117c-2.323,0.179 -4.14063,2.14933 -4.14063,4.48633l-0.03711,13.84766c-0.003,1.106 0.89205,2.00391 1.99805,2.00391c1.103,0 1.99609,-0.89309 1.99609,-1.99609v-11.50391c0,-0.276 0.224,-0.5 0.5,-0.5c0.276,0 0.5,0.224 0.5,0.5v13.00391c0.008,-0.006 0.0223,-0.00962 0.0293,-0.01562l-0.02344,10.86719c-0.003,1.308 0.93633,2.49986 2.23633,2.63086c1.496,0.151 2.75781,-1.01842 2.75781,-2.48242v-11.00391c0,-0.276 0.224,-0.5 0.5,-0.5c0.276,0 0.5,0.224 0.5,0.5v10.85742c0,1.308 0.94119,2.49986 2.24219,2.63086c1.496,0.15 2.75686,-1.02133 2.75586,-2.48633l-0.00586,-26.41992c0,-0.271 0.11164,-0.53075 0.30664,-0.71875l10.01367,-9.68555c0.972,-0.976 0.97295,-2.56311 0.00195,-3.53711c-0.486,-0.488 -1.12534,-0.73117 -1.76172,-0.73242zM28.94336,5.99805c0.294,1.433 -0.10784,2.9818 -1.21484,4.0918l-0.87891,0.84961l6.38086,6.82813c0.209,0.209 0.31506,0.49992 0.28906,0.79492l-1.3457,15.28711c-0.091,0.605 0.37628,1.15039 0.98828,1.15039c0,0 8.47622,0.01667 11.82422,0.01367c0.67,0 1.14612,-0.64611 0.95313,-1.28711l-3.78516,-12.61523c-0.08,-0.265 0.07094,-0.54405 0.33594,-0.62305c0.262,-0.081 0.54209,0.07094 0.62109,0.33594l2.93359,9.76953c0.331,1.103 1.51556,1.70336 2.60156,1.31836c1.019,-0.361 1.573,-1.46405 1.25,-2.49805l-3.93555,-12.62109c-0.604,-1.605 -2.04205,-2.71362 -3.74805,-2.89062l-6.05273,-0.2793zM24,22c-1.65685,0 -3,1.34315 -3,3c0,1.65685 1.34315,3 3,3c1.65685,0 3,-1.34315 3,-3c0,-1.65685 -1.34315,-3 -3,-3zM21.5,29c-1.654,0 -3,1.37731 -3,3.07031v6c0,1.222 0.97297,2.21484 2.16797,2.21484h0.33203v5.92969c0,0.985 0.785,1.78516 1.75,1.78516h2.5c0.965,0 1.75,-0.80016 1.75,-1.78516v-5.92969h0.33203c1.195,0 2.16797,-0.99284 2.16797,-2.21484v-6c0,-1.693 -1.346,-3.07031 -3,-3.07031zM35,36v10c0,1.1 0.9,2 2,2c1.1,0 2,-0.9 2,-2v-10zM40,36v10c0,1.1 0.9,2 2,2c1.1,0 2,-0.9 2,-2v-10z"></path></g></g>
</svg>