<svg xmlns="http://www.w3.org/2000/svg" x="0px" y="0px" width="100" height="100" viewBox="0,0,256,256">
<g fill="currentColor" fill-rule="nonzero" stroke="none" stroke-width="1" stroke-linecap="butt" stroke-linejoin="miter" stroke-miterlimit="10" stroke-dasharray="" stroke-dashoffset="0" font-family="none" font-weight="none" font-size="none" text-anchor="none" style="mix-blend-mode: normal"><g transform="scale(5.12,5.12)"><path d="M38.60156,32.5c-2.90234,-10.30078 -7.10156,-19.5 -7.10156,-19.5c0,0 -0.10156,-0.19922 -0.19922,-0.39844c-0.10156,-0.30078 -0.10156,-0.90234 0.09766,-1.20312c0.10156,-0.09766 0.20313,-0.39844 0.60156,-0.39844c1.89844,0 2,3.19922 2,4.10156c0,1.09766 0.89844,1.89844 2,1.89844c0.80078,0 1.5,-0.39844 1.80078,-0.89844c1.5,-2.60156 1.5,-6.5 0.30078,-8.20312c-1,-1.89844 -3.20312,-3.89844 -8.10156,-3.89844c-9.89844,0 -15.69922,14.80078 -18.89844,28.60156c-4.80078,1.29688 -8.10156,3.29688 -8.10156,5.89844c0,4.89844 11.30078,7.5 22,7.5c10.69922,0 22,-2.60156 22,-7.5c0,-2.69922 -3.5,-4.69922 -8.39844,-6zM25,41c-10.19922,0 -15.10156,-2.39844 -15.10156,-2.39844c0,0 0.60156,-3.40234 0.80078,-4c0.40234,0.19922 3,1 3.60156,1.19922c2.5,0.69922 6,1.19922 10.69922,1.19922c4.80078,0 8.39844,-0.60156 11,-1.19922c0.5,-0.10156 2.69922,-0.80078 3.19922,-1c0.19922,0.69922 0.90234,3.80078 0.90234,3.80078c0,0 -4.80078,2.39844 -15.10156,2.39844z"></path></g></g>
</svg>