<svg xmlns="http://www.w3.org/2000/svg" x="0px" y="0px" width="100" height="100" viewBox="0,0,256,256">
<g fill="currentColor" fill-rule="nonzero" stroke="none" stroke-width="1" stroke-linecap="butt" stroke-linejoin="miter" stroke-miterlimit="10" stroke-dasharray="" stroke-dashoffset="0" font-family="none" font-weight="none" font-size="none" text-anchor="none" style="mix-blend-mode: normal"><g transform="scale(4,4)"><path d="M24,12v3h-5v2l2,1v4h-7v2l2,1v4h5.17578l-0.23437,2h-8.94141v2l2,1v4h6.11719l-0.23438,2h-10.88281v2l2,1v4h8.05859l-0.23437,2h-12.82422v2l2,1v4h10h5l2,-38h3l-0.31641,6h8.63281l-0.31641,-6h3l2,38h5h10v-4l2,-1v-2h-12.82422l-0.23437,-2h8.05859v-4l2,-1v-2h-10.88281l-0.23438,-2h6.11719v-4l2,-1v-2h-8.94141l-0.23437,-2h5.17578v-4l2,-1v-2h-7v-4l2,-1v-2h-5v-3zM36.37891,25.1875l-8.78906,0.62695l-0.11523,2.18555h9.05078zM36.58789,29.17188l-9.21094,0.6582l-0.11328,2.16992h9.47266zM36.79883,33.15625l-9.63281,0.68945l-0.11328,2.1543h9.89453zM37.00781,37.14258l-10.05273,0.7168l-0.11328,2.14063h10.31641zM37.2168,41.12695l-10.47461,0.74805l-0.10938,2.125h10.73438zM37.42773,45.11133l-10.89648,0.7793l-0.10937,2.10938h11.15625zM37.63672,49.09766l-11.31641,0.80859l-0.10937,2.09375h11.57812zM37.8457,53.08203l-11.73633,0.83984l-0.10937,2.07813h12z"></path></g></g>
</svg>