<svg xmlns="http://www.w3.org/2000/svg" x="0px" y="0px" width="100" height="100" viewBox="0,0,256,256">
<g fill="currentColor" fill-rule="nonzero" stroke="none" stroke-width="1" stroke-linecap="butt" stroke-linejoin="miter" stroke-miterlimit="10" stroke-dasharray="" stroke-dashoffset="0" font-family="none" font-weight="none" font-size="none" text-anchor="none" style="mix-blend-mode: normal"><g transform="scale(4,4)"><path d="M32,7c-14.652,0 -22,11.05692 -22,24.66992c0,5.376 4.98047,11.56155 4.98047,13.43555c0,1.40332 -2.79253,2.60193 -4.19531,3.11523c-0.00218,0.0008 -0.00564,0.00116 -0.00781,0.00195l-5.77734,1.77734l0.44336,2.6582c0.321,1.928 1.99031,3.3418 3.94531,3.3418h45.22266c1.955,0 3.62331,-1.4138 3.94531,-3.3418l0.44336,-2.6582l-5.36328,-1.65039l-0.01758,-0.00586c-2.21333,-0.77593 -3.61914,-1.704 -3.61914,-3.34375c0,-1.874 4,-5.847 4,-10c0,-16.942 -10.67777,-28 -21.38477,-28c0,0.00746 0.00189,0.01405 0.00195,0.02148c-0.20575,-0.00696 -0.40656,-0.02148 -0.61719,-0.02148zM32,11c5.52888,0 8.25075,2.68093 9.95313,5.52734c1.70238,2.84642 2.06055,5.70898 2.06055,5.70898l0.14258,1.18555l1.10938,0.4375c0,0 2.73438,0.92726 2.73438,4.14063c0,1.74424 -0.96817,2.84278 -2.59375,4.24219c-1.62558,1.39941 -3.85813,2.73357 -5.06641,5.23633v0.00195c-0.62751,1.30007 -0.73177,2.59082 -1.00586,4.17969c-0.27409,1.58887 -0.60079,3.3582 -1.13086,4.95508c-0.53007,1.59688 -1.26081,2.98547 -2.21094,3.9043c-0.83137,0.80393 -1.79918,1.33501 -3.31055,1.45508c-0.22355,0.01258 -0.44709,0.02539 -0.68164,0.02539c-0.23455,0 -0.45809,-0.01281 -0.68164,-0.02539c-1.51137,-0.12006 -2.47918,-0.65111 -3.31055,-1.45508c-0.95013,-0.91882 -1.68087,-2.30742 -2.21094,-3.9043c-0.53007,-1.59688 -0.85677,-3.36621 -1.13086,-4.95508c-0.27409,-1.58887 -0.37835,-2.87961 -1.00586,-4.17969v-0.00195c-1.20828,-2.50271 -3.44082,-3.83692 -5.06641,-5.23633c-1.62558,-1.39941 -2.59375,-2.49795 -2.59375,-4.24219c0,-3.21336 2.73438,-4.14062 2.73438,-4.14062l1.10938,-0.4375l0.14258,-1.18555c0,0 0.35817,-2.86256 2.06055,-5.70898c1.70238,-2.84642 4.42424,-5.52734 9.95313,-5.52734zM28.5,19c-1.67,0 -1.02206,3.48017 -4.53906,5.70117c-0.928,0.586 -2.96094,1.08783 -2.96094,2.79883c0,1.274 1.087,2.5 3,2.5c2.715,0 6,-4.91084 6,-8.58984c0,-1.574 -0.601,-2.41016 -1.5,-2.41016zM35.5,19c-0.899,0 -1.5,0.83616 -1.5,2.41016c0,3.679 3.285,8.58984 6,8.58984c1.913,0 3,-1.226 3,-2.5c0,-1.711 -2.03294,-2.21283 -2.96094,-2.79883c-3.517,-2.221 -2.86906,-5.70117 -4.53906,-5.70117zM32,27.5c-1,0 -3,2.747 -3,4.5c0,0.713 0.695,1 1,1c1.28,0 1.36,-1 2,-1c0.64,0 0.72,1 2,1c0.305,0 1,-0.287 1,-1c0,-1.753 -2,-4.5 -3,-4.5zM32,35c-2.4,0 -4,1.8 -4,3c0,1.428 0.77017,1.26962 1.07617,3.51563c0.492,3.605 1.45283,7.48438 2.92383,7.48438c1.471,0 2.43183,-3.87938 2.92383,-7.48437c0.306,-2.246 1.07617,-2.08763 1.07617,-3.51562c0,-1.2 -1.6,-3 -4,-3z"></path></g></g>
</svg>