<svg xmlns="http://www.w3.org/2000/svg" x="0px" y="0px" width="100" height="100" viewBox="0,0,256,256">
<g fill="#0566fc" fill-rule="nonzero" stroke="none" stroke-width="1" stroke-linecap="butt" stroke-linejoin="miter" stroke-miterlimit="10" stroke-dasharray="" stroke-dashoffset="0" font-family="none" font-weight="none" font-size="none" text-anchor="none" style="mix-blend-mode: normal"><g transform="scale(5.12,5.12)"><path d="M30,0c-1.64453,0 -3.20312,0.84766 -4,2.0625c-0.79687,1.21484 -1,2.59375 -1,3.9375v7.78125c-1.43359,0.67969 -3.01953,1.30078 -4.6875,1.90625c-2.98828,1.08594 -6.125,2.16797 -8.71875,4c-2.59375,1.83203 -4.59375,4.70703 -4.59375,8.5625c0,2.64844 1.09766,4.92188 2.71875,6.46875c1.62109,1.54688 3.66016,2.45313 5.78125,3.0625c3.41406,0.98047 6.83984,1.12109 9.5,1.15625v3.0625c0,2.23438 -1.76953,4 -4,4c-1.76172,0 -3.23828,-1.13281 -3.78125,-2.6875c-0.37109,-1.04297 -1.51953,-1.58984 -2.5625,-1.21875c-1.04297,0.37109 -1.58984,1.51953 -1.21875,2.5625c1.09375,3.12109 4.08984,5.34375 7.5625,5.34375c4.39453,0 8,-3.60547 8,-8v-3.1875c1.51563,-0.16406 3.11719,-0.48828 4.6875,-1.3125c2.27734,-1.19531 4.3125,-3.63672 4.3125,-7c0,-3.20703 -1.64844,-5.71484 -3.84375,-6.96875c-1.59766,-0.91016 -3.37891,-1.22266 -5.15625,-1.375v-6.125c0.47656,-0.30078 1.01953,-0.49609 1.46875,-0.84375c2.59766,-2.00781 4.53125,-5.08984 4.53125,-9.1875c0,-1.37891 -0.19141,-2.75 -1,-3.96875c-0.80859,-1.21875 -2.38281,-2.03125 -4,-2.03125zM30,4c0.58984,0 0.51953,0.04297 0.65625,0.25c0.13672,0.20703 0.34375,0.83203 0.34375,1.75c0,2.30469 -0.82031,3.70313 -2,4.9375v-4.9375c0,-0.86719 0.19141,-1.48828 0.34375,-1.71875c0.15234,-0.23047 0.09375,-0.28125 0.65625,-0.28125zM25,18.15625v3.9375c-1.94922,0.26172 -3.57812,1.23047 -4.71875,2.375c-1.33203,1.33984 -2.21875,2.73438 -2.21875,4.53125c-0.01172,0.72266 0.36719,1.39063 0.99219,1.75391c0.62109,0.36719 1.39453,0.36719 2.01563,0c0.625,-0.36328 1.00391,-1.03125 0.99219,-1.75391c0,0.17578 0.3125,-0.93359 1.0625,-1.6875c0.51563,-0.51953 1.16406,-0.94141 1.875,-1.15625v8.78125c-2.53125,-0.05078 -5.625,-0.21094 -8.375,-1c-1.73437,-0.5 -3.21094,-1.22656 -4.15625,-2.125c-0.94531,-0.89844 -1.46875,-1.90625 -1.46875,-3.5625c0,-2.62109 1,-3.96484 2.90625,-5.3125c1.90625,-1.34766 4.76953,-2.375 7.78125,-3.46875c1.10156,-0.39844 2.20313,-0.85937 3.3125,-1.3125zM29,26.1875c1.23828,0.15234 2.37109,0.39453 3.15625,0.84375c1.19531,0.68359 1.84375,1.42578 1.84375,3.46875c0,1.94922 -0.77344,2.74219 -2.15625,3.46875c-0.81641,0.42969 -1.83984,0.65234 -2.84375,0.8125z"></path></g></g>
</svg>