<svg xmlns="http://www.w3.org/2000/svg" x="0px" y="0px" width="100" height="100" viewBox="0,0,256,256">
<g fill="currentColor" fill-rule="nonzero" stroke="none" stroke-width="1" stroke-linecap="butt" stroke-linejoin="miter" stroke-miterlimit="10" stroke-dasharray="" stroke-dashoffset="0" font-family="none" font-weight="none" font-size="none" text-anchor="none" style="mix-blend-mode: normal"><g transform="scale(5.12,5.12)"><path d="M25,3c-0.35125,0 -0.70341,0.15539 -0.87891,0.46289l-24,42.12305c-0.169,0.296 -0.16047,0.65431 0.01953,0.94531c0.18,0.289 0.50638,0.46875 0.85938,0.46875h48c0.353,0 0.67938,-0.17975 0.85938,-0.46875c0.18,-0.291 0.18853,-0.64931 0.01953,-0.94531l-24,-42.12305c-0.1755,-0.3075 -0.52766,-0.46289 -0.87891,-0.46289zM25,23c6.583,0 12.28203,6.041 13.95703,8c-1.675,1.959 -7.37403,8 -13.95703,8c-6.583,0 -12.28203,-6.041 -13.95703,-8c1.675,-1.959 7.37403,-8 13.95703,-8zM25,25c-3.314,0 -6,2.686 -6,6c0,3.314 2.686,6 6,6c3.314,0 6,-2.686 6,-6c0,-3.314 -2.686,-6 -6,-6zM25,29c1.105,0 2,0.895 2,2c0,1.105 -0.895,2 -2,2c-1.105,0 -2,-0.895 -2,-2c0,-1.105 0.895,-2 2,-2z"></path></g></g>
</svg>