<svg xmlns="http://www.w3.org/2000/svg" x="0px" y="0px" width="100" height="100" viewBox="0,0,256,256">
<g fill="currentColor" fill-rule="nonzero" stroke="none" stroke-width="1" stroke-linecap="butt" stroke-linejoin="miter" stroke-miterlimit="10" stroke-dasharray="" stroke-dashoffset="0" font-family="none" font-weight="none" font-size="none" text-anchor="none" style="mix-blend-mode: normal"><g transform="scale(5.12,5.12)"><path d="M21.84375,0c-0.99609,0.05859 -1.79687,0.84766 -1.875,1.84375c-0.59766,7.37891 -4.1875,11.52344 -8,15.90625c-3.8125,4.38281 -7.96875,9.09766 -7.96875,16.59375c0,4.90234 2.17188,8.86719 5.09375,11.53125c2.92188,2.66406 6.54688,4.125 9.90625,4.125c0.72266,0.01172 1.39063,-0.36719 1.75391,-0.99219c0.36719,-0.62109 0.36719,-1.39453 0,-2.01562c-0.36328,-0.625 -1.03125,-1.00391 -1.75391,-0.99219c-2.14062,0 -5.01562,-1.05469 -7.21875,-3.0625c-2.20312,-2.00781 -3.78125,-4.84766 -3.78125,-8.59375c0,-6.05469 3.16406,-9.5625 7,-13.96875c3.25781,-3.74219 6.79297,-8.21484 8.25,-14.6875c13.69922,10.83594 18.92969,19.13672 18.75,26.53125c-0.14844,6.03125 -3.72656,12.30469 -7.75,13.9375c-0.73047,0.21484 -1.27344,0.82813 -1.40234,1.57813c-0.12891,0.75391 0.17969,1.51172 0.79297,1.95703c0.61719,0.44922 1.43359,0.50781 2.10938,0.15234c6.26563,-2.53906 10.07031,-10.10547 10.25,-17.53125c0.23828,-9.82031 -6.57812,-19.66797 -22.84375,-31.90625c-0.375,-0.28516 -0.83984,-0.42969 -1.3125,-0.40625zM25.5,15.40625c-0.55078,0.05859 -1.05078,0.34766 -1.38281,0.79297c-0.33203,0.44141 -0.46484,1.00391 -0.36719,1.55078c0.60156,3.46094 0.71484,6.26172 0.53125,8.3125c-0.18359,2.05078 -0.74609,3.31641 -1.09375,3.71875c-0.34766,0.40234 -0.125,0.36719 -0.6875,0.125c-0.5625,-0.24219 -1.70703,-1.16406 -2.875,-2.96875c-0.37891,-0.58203 -1.03516,-0.92578 -1.73047,-0.90625c-0.69531,0.01953 -1.32812,0.39844 -1.67578,1c-2.68359,4.71484 -2.54297,8.53516 -1.40625,11.03125c1.13672,2.49609 3.21875,3.6875 3.21875,3.6875c0.96484,0.53516 2.18359,0.18359 2.71875,-0.78125c0.53516,-0.96484 0.18359,-2.18359 -0.78125,-2.71875c0,0 -0.89062,-0.50391 -1.5,-1.84375c-0.44531,-0.97266 -0.74609,-2.39453 -0.03125,-4.59375c0.77344,0.77344 1.57031,1.36328 2.46875,1.75c1.76563,0.76172 4.05859,0.29688 5.3125,-1.15625c1.25391,-1.45312 1.83594,-3.46875 2.0625,-6c0.08984,-1.01172 0.07422,-2.17578 0.03125,-3.375c1.41797,1.84375 2.51563,3.73047 3,5.625c0.85156,3.32813 0.32813,6.6875 -2,10.25c-0.60547,0.93359 -0.33984,2.17578 0.59375,2.78125c0.93359,0.60547 2.17578,0.33984 2.78125,-0.59375c2.84375,-4.35156 3.62109,-9.05859 2.5,-13.4375c-1.12109,-4.37891 -4.03516,-8.35547 -8.1875,-11.78125c-0.41406,-0.35547 -0.95703,-0.52344 -1.5,-0.46875z"></path></g></g>
</svg>