<svg xmlns="http://www.w3.org/2000/svg" x="0px" y="0px" width="100" height="100" viewBox="0,0,256,256">
<g fill="currentColor" fill-rule="nonzero" stroke="none" stroke-width="1" stroke-linecap="butt" stroke-linejoin="miter" stroke-miterlimit="10" stroke-dasharray="" stroke-dashoffset="0" font-family="none" font-weight="none" font-size="none" text-anchor="none" style="mix-blend-mode: normal"><g transform="scale(5.12,5.12)"><path d="M26,2c-2.20703,0 -4,1.79297 -4,4c0,2.20703 1.79297,4 4,4c2.20703,0 4,-1.79297 4,-4c0,-2.20703 -1.79297,-4 -4,-4zM18,9c-2.20703,0 -4,1.79297 -4,4c0,2.20703 1.79297,4 4,4c2.20703,0 4,-1.79297 4,-4c0,-2.20703 -1.79297,-4 -4,-4zM33.87109,11.02344c-0.26953,0.00391 -0.48828,0.03516 -0.62109,0.07422l-7.57031,1.56641c-0.04297,0.00781 -0.08594,0.02344 -0.125,0.03516c-0.89844,0.3125 -1.60547,1.03906 -1.91016,2.04297l-0.125,0.61328l2.40234,-1.02734c0.5,-0.21875 1.03125,-0.32812 1.57813,-0.32812h5.25l4.78125,-0.59766c-0.47656,-0.67578 -0.90234,-1.27734 -1,-1.40234c-0.63672,-0.79687 -1.86328,-0.99219 -2.66016,-0.97656zM41.15625,15.00391c-0.12891,-0.00781 -0.26562,-0.00781 -0.40625,0.01172l-7.875,0.98438h-5.375c-0.26953,0 -0.53906,0.05469 -0.78516,0.16016l-7,3c-0.47266,0.20313 -0.84766,0.57422 -1.05078,1.04297l-2.61719,6.03516l-5.07812,3.04688c-0.94531,0.56641 -1.25391,1.79688 -0.6875,2.74609c0.37891,0.625 1.03906,0.96875 1.71875,0.96875c0.35156,0 0.70703,-0.09375 1.03125,-0.28516l5.625,-3.375c0.35547,-0.21484 0.64063,-0.53516 0.80469,-0.91797l1.88672,-4.35547l1.44922,1.94922l1.04297,-0.01562c0.87891,-0.03125 3.55469,-0.50391 4.5625,-1.80469c0.28516,-0.36719 0.22266,-0.67969 0.22266,-0.67969l-0.625,-3.5l5,-0.01562c0.08203,0 0.16797,-0.00391 0.25,-0.01562l8,-1c1.09375,-0.13672 1.87109,-1.13672 1.73438,-2.23437c-0.12109,-0.95703 -0.89844,-1.67578 -1.82812,-1.74609zM42.20313,20.80859c-0.22656,0.07031 -0.46484,0.12891 -0.70703,0.16016l-4.49609,0.5625v1.46875c0,0.96484 0.69141,1.75391 1.59766,1.94141c0.03906,0.01172 0.08203,0.01953 0.125,0.02734c0.01172,0 0.02344,0.00391 0.03125,0.00391c0.00391,0 0.00391,0 0.01172,0c0.07422,0.01172 0.14453,0.02734 0.23438,0.02734c0.67578,0 1.32422,-0.33594 1.6875,-0.84766c0.31641,-0.43359 0.41797,-0.625 0.58203,-0.95312c0.26172,-0.52734 0.61719,-1.48437 0.93359,-2.39062zM35,21.78125l-1.49219,0.1875c-0.16797,0.01953 -0.33984,0.03125 -0.50391,0.03125l-2.61719,0.00781l0.35156,2.05859l0.35156,0.41797c0.05859,0.07422 3.82422,4.58203 7.89453,9.08203c-0.01562,-0.54687 -0.11328,-1.08594 -0.3125,-1.62109l-2.48047,-6.09766c0,-0.00391 0,-0.00391 -0.00391,-0.00391c-0.73047,-0.72656 -1.1875,-1.73437 -1.1875,-2.84375zM29.55078,25.76563c-1.85937,2.07422 -5.48047,2.22656 -5.64062,2.23438l-0.91016,0.03125c0,0 -1,3.84375 -6.58203,7.90625c-4.87891,3.55078 -10.45312,4.0625 -10.50781,4.06641c-0.00391,0 -0.00781,0.00391 -0.01172,0.00391l-0.00781,-0.00391c-0.06641,0.00781 -0.125,0.03906 -0.1875,0.05859c-0.05078,0.01563 -0.10937,0.02344 -0.15625,0.04688c-0.0625,0.03125 -0.10547,0.07813 -0.15625,0.12109c-0.04687,0.03125 -0.09375,0.05859 -0.13281,0.09766c-0.04687,0.05469 -0.07812,0.12109 -0.11328,0.18359c-0.02344,0.03906 -0.05859,0.07813 -0.07422,0.125c-0.04687,0.11328 -0.07031,0.23438 -0.07031,0.36328c0,1.73438 1.17578,5.19922 5.64063,5.91016c1.89453,0.30078 3.42188,-0.25781 4.26172,-0.6875c0,0.00391 0.00391,0 0.00781,0.00391c0.89453,0.67578 2.70313,1.77344 5.08984,1.77344c2.19922,0 3.91406,-0.92969 4.87109,-1.60937c0.80469,0.73047 2.35156,1.60938 5.12891,1.60938c2.90234,0 4.46094,-0.95703 5.23438,-1.70312c0.73828,0.33594 1.95703,0.70313 3.76563,0.70313c4.51563,0 5.87891,-3.5 5.9375,-3.64844c0.14453,-0.38672 0.03516,-0.82422 -0.27344,-1.09766c-5.30469,-4.71484 -15.11328,-16.48828 -15.11328,-16.48828z"></path></g></g>
</svg>