<svg xmlns="http://www.w3.org/2000/svg" x="0px" y="0px" width="100" height="100" viewBox="0,0,256,256">
<g fill="#0566fc" fill-rule="nonzero" stroke="none" stroke-width="1" stroke-linecap="butt" stroke-linejoin="miter" stroke-miterlimit="10" stroke-dasharray="" stroke-dashoffset="0" font-family="none" font-weight="none" font-size="none" text-anchor="none" style="mix-blend-mode: normal"><g transform="scale(5.12,5.12)"><path d="M42,4c-2.04687,0 -3.70312,1.54688 -3.9375,3.53125c-2.59375,0.5 -4.32812,2.38281 -5.5,4.40625c-2.35937,-1.22266 -4.92578,-1.9375 -7.5625,-1.9375c-2.63672,0 -5.20312,0.71484 -7.5625,1.9375c-0.64453,-0.91797 -1.48437,-1.55078 -2.40625,-1.90625c-0.92969,-0.35937 -1.97266,-0.44531 -3.09375,-0.53125c-0.24609,-1.96875 -1.90234,-3.5 -3.9375,-3.5c-2.20703,0 -4,1.79297 -4,4c0,2.20703 1.79297,4 4,4c1.6875,0 3.13281,-1.04687 3.71875,-2.53125c1.07422,0.08594 1.97266,0.19922 2.59375,0.4375c0.56641,0.21875 0.99219,0.51953 1.375,1.0625c-5.64062,3.72266 -9.6875,10.48828 -9.6875,17.71875c0,9.4375 7.28125,15.3125 19,15.3125c11.71875,0 19,-5.875 19,-15.3125c0,-7.24609 -4.05859,-14.03125 -9.71875,-17.75c0.95703,-1.69141 2.19922,-3.04687 4.03125,-3.4375c0.59375,1.46484 2.01172,2.5 3.6875,2.5c2.20703,0 4,-1.79297 4,-4c0,-2.20703 -1.79297,-4 -4,-4zM25,20c3.86719,0 7,3.13281 7,7c0,3.86719 -3.13281,7 -7,7c-3.86719,0 -7,-3.13281 -7,-7c0,-3.86719 3.13281,-7 7,-7zM25,24c-1.69922,0 -3,1.30078 -3,3c0,1.69922 1.30078,3 3,3c1.69922,0 3,-1.30078 3,-3v-0.1875c-0.19922,0.10156 -0.39453,0.1875 -0.59375,0.1875c-0.69922,0 -1.21875,-0.48828 -1.21875,-1.1875c0,-0.5 0.32031,-0.92578 0.71875,-1.125c-0.5,-0.39844 -1.20703,-0.6875 -1.90625,-0.6875zM32.3125,37.1875c0.38672,-0.03516 0.77344,0.16406 0.96875,0.53125c0.25781,0.48828 0.08203,1.11719 -0.40625,1.375c-0.14844,0.07813 -3.67578,1.90625 -7.875,1.90625c-4.19922,0 -7.72656,-1.82812 -7.875,-1.90625c-0.48828,-0.25781 -0.66406,-0.88672 -0.40625,-1.375c0.25781,-0.48828 0.85547,-0.66406 1.34375,-0.40625c0.03125,0.01953 3.25,1.6875 6.9375,1.6875c3.71094,0 6.90625,-1.67187 6.9375,-1.6875c0.12109,-0.06641 0.24609,-0.11328 0.375,-0.125z"></path></g></g>
</svg>