<svg xmlns="http://www.w3.org/2000/svg" x="0px" y="0px" width="100" height="100" viewBox="0,0,256,256">
<g fill="currentColor" fill-rule="nonzero" stroke="none" stroke-width="1" stroke-linecap="butt" stroke-linejoin="miter" stroke-miterlimit="10" stroke-dasharray="" stroke-dashoffset="0" font-family="none" font-weight="none" font-size="none" text-anchor="none" style="mix-blend-mode: normal"><g transform="scale(5.12,5.12)"><path d="M24.391,3.537c2.131,0 3.554,1.269 3.554,3.028c0,1.674 -0.71,2.573 -2.809,3.84c-2.335,1.371 -3.316,2.893 -3.164,5.432l0.017,1.152h3.924v-0.966c0,-1.674 0.626,-2.538 2.844,-3.84c2.3,-1.371 3.587,-3.182 3.587,-5.77c0,-3.74 -3.097,-6.413 -7.732,-6.413c-5.027,0 -7.784,2.911 -7.92,6.92h3.976c0.136,-2.064 1.54,-3.383 3.723,-3.383zM24.137,19.661c-1.691,0 -2.809,1.066 -2.809,2.707c0,0.273 0.042,0.523 0.103,0.762h5.415c0.059,-0.239 0.1,-0.489 0.1,-0.762c0,-1.641 -1.082,-2.707 -2.809,-2.707zM46.895,39.553l-7,-14c-0.046,-0.092 -0.108,-0.173 -0.177,-0.245c-0.016,-0.017 -0.036,-0.029 -0.054,-0.044c-0.069,-0.062 -0.145,-0.113 -0.229,-0.154c-0.03,-0.015 -0.058,-0.028 -0.089,-0.039c-0.11,-0.042 -0.225,-0.071 -0.346,-0.071h-28c-0.121,0 -0.236,0.029 -0.346,0.07c-0.031,0.012 -0.059,0.025 -0.089,0.039c-0.083,0.041 -0.159,0.092 -0.229,0.154c-0.018,0.016 -0.038,0.028 -0.054,0.045c-0.07,0.072 -0.131,0.153 -0.177,0.245l-7,14c-0.247,0.494 -0.047,1.095 0.447,1.342c0.494,0.245 1.094,0.047 1.342,-0.447l5.106,-10.211v18.763c0,0.553 0.447,1 1,1h28c0.553,0 1,-0.447 1,-1v-18.763l5.105,10.211c0.176,0.35 0.529,0.552 0.896,0.552c0.15,0 0.303,-0.034 0.446,-0.105c0.494,-0.247 0.695,-0.848 0.448,-1.342zM30,33h-10c-0.553,0 -1,-0.447 -1,-1c0,-0.553 0.447,-1 1,-1h10c0.553,0 1,0.447 1,1c0,0.553 -0.447,1 -1,1z"></path></g></g>
</svg>