<svg xmlns="http://www.w3.org/2000/svg" x="0px" y="0px" width="100" height="100" viewBox="0,0,256,256">
<g fill="currentColor" fill-rule="nonzero" stroke="none" stroke-width="1" stroke-linecap="butt" stroke-linejoin="miter" stroke-miterlimit="10" stroke-dasharray="" stroke-dashoffset="0" font-family="none" font-weight="none" font-size="none" text-anchor="none" style="mix-blend-mode: normal"><g transform="scale(5.12,5.12)"><path d="M47,0.09375l-1.71875,1.75c-0.01172,0.01172 -0.26953,0.30078 -0.71875,0.6875c-0.67578,1.94922 -1.3125,3.27344 -1.34375,3.34375c-4.65234,10.97656 -14.1875,18.58594 -14.59375,18.90625c-0.18359,0.14453 -0.40625,0.21875 -0.625,0.21875c-0.29687,0 -0.58594,-0.125 -0.78125,-0.375c-0.34375,-0.43359 -0.27734,-1.0625 0.15625,-1.40625c0.09766,-0.07422 9.56641,-7.62891 14.03125,-18.15625c0.00781,-0.01562 0.10938,-0.23828 0.25,-0.5625c-1.14844,0.59766 -2.49219,1.0625 -3.84375,1.0625h-0.40625l-21.40625,21.40625l11.375,11.375l0.6875,-0.6875c3.23828,-3.20703 5.91406,-6.23828 8.15625,-9.0625c0.0625,0.51953 0.16406,1.01953 0.375,1.46875c0.60156,1.26563 1.78906,1.96875 3.3125,1.96875c0.97266,0 1.81641,-0.37109 2.4375,-1.0625c0.80859,-0.89453 1.19141,-2.30469 1.03125,-3.84375c-0.0625,-0.60156 -0.23437,-1.24219 -0.40625,-1.9375c-0.46094,-1.84766 -1.00391,-4.125 0,-6.75c3.33203,-6.38281 4.05469,-11.18359 4.03125,-14.125zM40.4375,22.71875c0.11719,1.09766 0.37891,2.07813 0.59375,2.9375c0.16016,0.64844 0.29688,1.22656 0.34375,1.6875c0.09766,0.94922 -0.08203,1.82031 -0.5,2.28125c-0.23828,0.26563 -0.56641,0.40625 -0.96875,0.40625c-0.97266,0 -1.31641,-0.46094 -1.5,-0.84375c-0.50781,-1.06641 -0.17578,-2.78516 0.25,-3.78125c0.65234,-0.91406 1.22656,-1.82031 1.78125,-2.6875zM14.59375,28.40625l-12.1875,12.1875c-1.6875,1.6875 -1.6875,3.625 0,5.3125l2.3125,2.3125c0.45313,0.44922 1.10547,0.6875 1.96875,0.6875c2.94141,0 8.625,-2.80859 11.46875,-5.65625c1.83203,-1.82812 3.63281,-4.30078 4.75,-6.53125zM34.09375,35c-0.33984,0 -0.72266,0.18359 -0.90625,0.5c-0.22266,0.39063 -2.1875,3.85547 -2.1875,5.78125c0,2.21484 1.22266,3.71875 3.03125,3.71875c1.87109,0 3.03125,-1.39453 3.03125,-3.65625c0,-1.53906 -1.74219,-5.08594 -2.09375,-5.78125c-0.16406,-0.32812 -0.50781,-0.55078 -0.875,-0.5625z"></path></g></g>
</svg>