<svg xmlns="http://www.w3.org/2000/svg" x="0px" y="0px" width="100" height="100" viewBox="0,0,256,256">
<g fill="currentColor" fill-rule="nonzero" stroke="none" stroke-width="1" stroke-linecap="butt" stroke-linejoin="miter" stroke-miterlimit="10" stroke-dasharray="" stroke-dashoffset="0" font-family="none" font-weight="none" font-size="none" text-anchor="none" style="mix-blend-mode: normal"><g transform="scale(5.12,5.12)"><path d="M38,2c-0.25391,0 -0.52344,0.08594 -0.71875,0.28125l-12.28125,12.3125l-7.28125,-7.3125c-0.39062,-0.39062 -1.04687,-0.39062 -1.4375,0c-0.39062,0.39063 -0.39062,1.04688 0,1.4375l6.28125,6.28125h-16.5625c-3.30859,0 -6,2.69141 -6,6v23c0,3.30859 2.69141,6 6,6h38c3.30859,0 6,-2.69141 6,-6v-23c0,-3.30859 -2.69141,-6 -6,-6h-16.5625l11.28125,-11.28125c0.39063,-0.39062 0.39063,-1.04687 0,-1.4375c-0.19531,-0.19531 -0.46484,-0.28125 -0.71875,-0.28125zM20.5,19c14.45313,0 16.5,0.03906 16.5,13.5c0,13.46094 -2.1875,13.5 -16.5,13.5c-14.37891,0 -16.5,-0.14453 -16.5,-13.5c0,-13.35156 2.12109,-13.5 16.5,-13.5zM43,26c1.10547,0 2,0.89453 2,2c0,1.10547 -0.89453,2 -2,2c-1.10547,0 -2,-0.89453 -2,-2c0,-1.10547 0.89453,-2 2,-2zM43,35c1.10547,0 2,0.89453 2,2c0,1.10547 -0.89453,2 -2,2c-1.10547,0 -2,-0.89453 -2,-2c0,-1.10547 0.89453,-2 2,-2z"></path></g></g>
</svg>