<svg xmlns="http://www.w3.org/2000/svg" x="0px" y="0px" width="100" height="100" viewBox="0,0,256,256">
<g fill="#0566fc" fill-rule="nonzero" stroke="none" stroke-width="1" stroke-linecap="butt" stroke-linejoin="miter" stroke-miterlimit="10" stroke-dasharray="" stroke-dashoffset="0" font-family="none" font-weight="none" font-size="none" text-anchor="none" style="mix-blend-mode: normal"><g transform="scale(5.12,5.12)"><path d="M16,10c-2.75781,0 -5,2.24219 -5,5v4c0,1.65234 1.34766,3 3,3h17.15625c0.97656,0 1.875,-0.48047 2.4375,-1.28125c0.55859,-0.80078 0.71094,-1.83203 0.375,-2.75l-1.71875,-4.6875c-0.71875,-1.96875 -2.59375,-3.28125 -4.6875,-3.28125zM34.28125,13l1.5625,4.28125c0.08594,0.23047 0.14063,0.48047 0.1875,0.71875h13.96875v-5zM6.34375,23c-1.07422,0 -2.14062,0.35547 -3,1l-3.34375,2.5v3.5h0.03125c0.0625,0.49219 0.23047,0.96875 0.5,1.40625l3.25,5.25c1.26563,2.05469 3.55469,3.34375 5.96875,3.34375h30.5c2.44922,0 4.68359,-1.25781 5.96875,-3.34375l3.25,-5.25c0.26953,-0.4375 0.4375,-0.91406 0.5,-1.40625h0.03125v-3.5l-3.34375,-2.5c-0.85937,-0.64453 -1.92578,-1 -3,-1zM2.09375,30h45.8125c-0.03516,0.11328 -0.08203,0.25781 -0.15625,0.375l-3.21875,5.25c-0.91797,1.48828 -2.53125,2.375 -4.28125,2.375h-30.5c-1.72266,0 -3.37891,-0.90625 -4.28125,-2.375l-3.21875,-5.28125c-0.07422,-0.12109 -0.12109,-0.23047 -0.15625,-0.34375zM10,31c-1.65625,0 -3,1.34375 -3,3c0,1.65625 1.34375,3 3,3c1.65625,0 3,-1.34375 3,-3c0,-1.65625 -1.34375,-3 -3,-3zM20,31c-1.65625,0 -3,1.34375 -3,3c0,1.65625 1.34375,3 3,3c1.65625,0 3,-1.34375 3,-3c0,-1.65625 -1.34375,-3 -3,-3zM30,31c-1.65625,0 -3,1.34375 -3,3c0,1.65625 1.34375,3 3,3c1.65625,0 3,-1.34375 3,-3c0,-1.65625 -1.34375,-3 -3,-3zM40,31c-1.65625,0 -3,1.34375 -3,3c0,1.65625 1.34375,3 3,3c1.65625,0 3,-1.34375 3,-3c0,-1.65625 -1.34375,-3 -3,-3z"></path></g></g>
</svg>