<svg xmlns="http://www.w3.org/2000/svg" x="0px" y="0px" width="100" height="100" viewBox="0,0,256,256">
<g fill="currentColor" fill-rule="nonzero" stroke="none" stroke-width="1" stroke-linecap="butt" stroke-linejoin="miter" stroke-miterlimit="10" stroke-dasharray="" stroke-dashoffset="0" font-family="none" font-weight="none" font-size="none" text-anchor="none" style="mix-blend-mode: normal"><g transform="scale(5.12,5.12)"><path d="M21,5c-2.02344,0 -4.97266,2.78516 -5.96875,6.78125c-0.62109,2.63281 -1.78906,9.11328 -2.46875,12.96875c0.00391,0.00781 -0.03125,0.25 -0.03125,0.25c0.05469,-0.24219 1.56641,5 12.46875,5c9.36719,0 11.90234,-3.76953 12.5,-5c-0.67187,-3.81641 -1.88672,-10.49609 -2.53125,-13.21875c-0.96484,-4.18359 -3.84766,-6.78125 -5.96875,-6.78125c-1.15234,0 -2.18359,0.74609 -3,1.34375c-0.33984,0.25 -0.82812,0.625 -0.96875,0.65625c-0.19141,-0.03125 -0.69141,-0.40625 -1.03125,-0.65625c-0.81641,-0.59766 -1.84766,-1.34375 -3,-1.34375zM37.5,25l0.5,2.9375c0.14063,0.59766 0.55469,2.62891 -1.6875,5.5625c-2.09375,2.73438 -5.74219,3.5 -11.28125,3.5c-5.54297,0 -8.85547,-0.51172 -10.96875,-3.25c-2.46484,-3.19141 -2.07422,-5.83984 -2.03125,-6c0,-0.00781 -0.00391,-0.04297 0,-0.0625l0.46875,-2.6875c-0.875,-2.46875 -2.85937,-4 -5.5,-4c-3.85937,0 -7,3.14063 -7,7c0,11.4375 8.17969,17 25,17c16.82031,0 25,-5.5625 25,-17c0,-3.85937 -3.14062,-7 -7,-7c-2.63672,0 -4.625,1.53125 -5.5,4z"></path></g></g>
</svg>