<svg xmlns="http://www.w3.org/2000/svg" x="0px" y="0px" width="100" height="100" viewBox="0,0,256,256">
<g fill="currentColor" fill-rule="nonzero" stroke="none" stroke-width="1" stroke-linecap="butt" stroke-linejoin="miter" stroke-miterlimit="10" stroke-dasharray="" stroke-dashoffset="0" font-family="none" font-weight="none" font-size="none" text-anchor="none" style="mix-blend-mode: normal"><g transform="scale(5.12,5.12)"><path d="M7.90625,1.96875c-0.04297,0.00781 -0.08594,0.01953 -0.125,0.03125c-0.46484,0.10547 -0.79297,0.52344 -0.78125,1v7h-2c-1.69922,0 -3,1.30078 -3,3v2c0,1.69922 1.30078,3 3,3h6c1.69922,0 3,-1.30078 3,-3v-2c0,-1.69922 -1.30078,-3 -3,-3h-2v-7c0.01172,-0.28906 -0.10547,-0.56641 -0.3125,-0.76172c-0.21094,-0.19922 -0.49609,-0.29688 -0.78125,-0.26953zM24.90625,1.96875c-0.04297,0.00781 -0.08594,0.01953 -0.125,0.03125c-0.46484,0.10547 -0.79297,0.52344 -0.78125,1v28h-2c-1.69922,0 -3,1.30078 -3,3v2c0,1.69922 1.30078,3 3,3h6c1.69922,0 3,-1.30078 3,-3v-2c0,-1.69922 -1.30078,-3 -3,-3h-2v-28c0.01172,-0.28906 -0.10547,-0.56641 -0.3125,-0.76172c-0.21094,-0.19922 -0.49609,-0.29688 -0.78125,-0.26953zM41.90625,1.96875c-0.04297,0.00781 -0.08594,0.01953 -0.125,0.03125c-0.46484,0.10547 -0.79297,0.52344 -0.78125,1v10h-2c-1.69922,0 -3,1.30078 -3,3v2c0,1.69922 1.30078,3 3,3h6c1.69922,0 3,-1.30078 3,-3v-2c0,-1.69922 -1.30078,-3 -3,-3h-2v-10c0.01172,-0.28906 -0.10547,-0.56641 -0.3125,-0.76172c-0.21094,-0.19922 -0.49609,-0.29688 -0.78125,-0.26953zM7,19v6.8125c-0.00781,0.0625 -0.00781,0.125 0,0.1875v21c-0.00391,0.35938 0.18359,0.69531 0.49609,0.87891c0.3125,0.17969 0.69531,0.17969 1.00781,0c0.3125,-0.18359 0.5,-0.51953 0.49609,-0.87891v-21c0.00781,-0.0625 0.00781,-0.125 0,-0.1875v-6.8125zM41,22v6.8125c-0.00781,0.0625 -0.00781,0.125 0,0.1875v18c-0.00391,0.35938 0.18359,0.69531 0.49609,0.87891c0.3125,0.17969 0.69531,0.17969 1.00781,0c0.3125,-0.18359 0.5,-0.51953 0.49609,-0.87891v-18c0.00781,-0.0625 0.00781,-0.125 0,-0.1875v-6.8125zM24,40v1.8125c-0.00781,0.0625 -0.00781,0.125 0,0.1875v5c-0.00391,0.35938 0.18359,0.69531 0.49609,0.87891c0.3125,0.17969 0.69531,0.17969 1.00781,0c0.3125,-0.18359 0.5,-0.51953 0.49609,-0.87891v-5c0.00781,-0.0625 0.00781,-0.125 0,-0.1875v-1.8125z"></path></g></g>
</svg>