<svg xmlns="http://www.w3.org/2000/svg" x="0px" y="0px" width="100" height="100" viewBox="0,0,256,256">
<g fill="currentColor" fill-rule="nonzero" stroke="none" stroke-width="1" stroke-linecap="butt" stroke-linejoin="miter" stroke-miterlimit="10" stroke-dasharray="" stroke-dashoffset="0" font-family="none" font-weight="none" font-size="none" text-anchor="none" style="mix-blend-mode: normal"><g transform="scale(5.12,5.12)"><path d="M25,2c-12.683,0 -23,10.317 -23,23c0,12.683 10.317,23 23,23c12.683,0 23,-10.317 23,-23c0,-12.683 -10.317,-23 -23,-23zM32,26h-6v6c0,0.553 -0.447,1 -1,1c-0.553,0 -1,-0.447 -1,-1v-6h-6c-0.553,0 -1,-0.447 -1,-1c0,-0.553 0.447,-1 1,-1h6v-6c0,-0.553 0.447,-1 1,-1c0.553,0 1,0.447 1,1v6h6c0.553,0 1,0.447 1,1c0,0.553 -0.447,1 -1,1z"></path></g></g>
</svg>